<?xml version="1.0" encoding="UTF-8"?>
<svg version="1.1" xmlns="http://www.w3.org/2000/svg" width="1192" height="395">
<path d="M0 0 C1.48979274 1.21626573 2.96866029 2.44601113 4.4375 3.6875 C5.25089844 4.35523437 6.06429688 5.02296875 6.90234375 5.7109375 C23.93801696 20.25294514 35.34715332 42.33885521 37.4375 64.6875 C39.03482373 90.45599882 31.82760844 114.32215582 14.83984375 134.09765625 C-0.1932568 150.30407196 -17.40164275 158.64154079 -38.5625 164.6875 C-38.8925 234.3175 -39.2225 303.9475 -39.5625 375.6875 C-407.5125 375.6875 -775.4625 375.6875 -1154.5625 375.6875 C-1154.5625 270.4175 -1154.5625 165.1475 -1154.5625 56.6875 C-824.2325 56.6875 -493.9025 56.6875 -153.5625 56.6875 C-153.2325 54.0475 -152.9025 51.4075 -152.5625 48.6875 C-144.83256134 24.51198714 -129.03248559 4.69474285 -106.5625 -7.3125 C-72.88996775 -24.17413468 -30.65694848 -23.2200971 0 0 Z " fill="#0D1117" transform="translate(1154.5625,19.3125)"/>
<path d="M0 0 C1.08974121 0.00563965 2.17948242 0.0112793 3.30224609 0.01708984 C25.7695905 0.35291962 46.4793667 7.71506038 63.75 22.3125 C64.56339844 22.98023437 65.37679688 23.64796875 66.21484375 24.3359375 C83.25051696 38.87794514 94.65965332 60.96385521 96.75 83.3125 C98.34732373 109.08099882 91.14010844 132.94715582 74.15234375 152.72265625 C56.86742768 171.35663894 33.64727234 183.23015308 8.12109375 184.43676758 C-19.81388829 185.23667885 -45.25778205 178.4793077 -66.25 159.3125 C-66.97832031 158.65378906 -67.70664063 157.99507812 -68.45703125 157.31640625 C-75.99798449 150.15033787 -81.55330021 141.54495348 -86.25 132.3125 C-87.00990234 130.82943359 -87.00990234 130.82943359 -87.78515625 129.31640625 C-88.30980469 128.24261719 -88.83445312 127.16882813 -89.375 126.0625 C-90.09042969 124.60070312 -90.09042969 124.60070312 -90.8203125 123.109375 C-94.90106583 113.19430872 -95.75268479 102.98378233 -95.625 92.375 C-95.61412354 91.14297852 -95.60324707 89.91095703 -95.59204102 88.64160156 C-95.15892119 63.9750191 -85.24008215 43.07762557 -67.703125 25.68798828 C-49.32924763 8.29577976 -25.01777369 -0.13709442 0 0 Z " fill="#FDFDFD" transform="translate(1095.25,0.6875)"/>
<path d="M0 0 C37.62 0 75.24 0 114 0 C114 35.31 114 70.62 114 107 C106.70884909 108.62025576 101.13745407 109.35443384 93.875 109.3125 C92.86453613 109.30758545 91.85407227 109.3026709 90.81298828 109.29760742 C67.45240831 108.93451854 45.22203843 99.72446987 28 84 C27.27167969 83.34128906 26.54335937 82.68257813 25.79296875 82.00390625 C18.25201551 74.83783787 12.69669979 66.23245348 8 57 C7.49339844 56.01128906 6.98679687 55.02257812 6.46484375 54.00390625 C5.94019531 52.93011719 5.41554688 51.85632813 4.875 50.75 C4.15957031 49.28820312 4.15957031 49.28820312 3.4296875 47.796875 C-0.75869929 37.59716149 -1.43531195 27.27365901 -1.25 16.375 C-1.24484375 15.12332031 -1.2396875 13.87164062 -1.234375 12.58203125 C-1.15571359 3.46714078 -1.15571359 3.46714078 0 0 Z " fill="#EEEEEE" transform="translate(1001,76)"/>
<path d="M0 0 C29 0 29 0 39 4 C43.39940023 8.39940023 45.13647961 11.65401906 45.25 17.8125 C45.17120551 22.34318329 44.68765986 25.22047832 42 29 C40.65025156 30.25302324 39.27283145 31.4766335 37.875 32.67578125 C37.15054688 33.30009033 36.42609375 33.92439941 35.6796875 34.56762695 C35.12539063 35.04031006 34.57109375 35.51299316 34 36 C34.52956299 36.86951294 34.52956299 36.86951294 35.06982422 37.7565918 C36.67545185 40.39787829 38.27527012 43.04263767 39.875 45.6875 C40.70837891 47.05551758 40.70837891 47.05551758 41.55859375 48.45117188 C42.09355469 49.33740234 42.62851562 50.22363281 43.1796875 51.13671875 C43.67194824 51.94842529 44.16420898 52.76013184 44.67138672 53.59643555 C46.0043849 56.00793262 47.03317473 58.42246789 48 61 C37.15214149 62.54029059 37.15214149 62.54029059 32 61 C28.10928536 57.24030503 26.16091984 52.91018171 24 48 C23.1039041 46.23937797 22.19028575 44.48742352 21.25 42.75 C20.90453125 42.04359375 20.5590625 41.3371875 20.203125 40.609375 C18.91344198 38.53083629 18.91344198 38.53083629 15 38 C15 45.59 15 53.18 15 61 C10.05 61 5.1 61 0 61 C0 40.87 0 20.74 0 0 Z " fill="#D8E3EF" transform="translate(400,169)"/>
<path d="M0 0 C6.27 0 12.54 0 19 0 C22.96 12.54 26.92 25.08 31 38 C31 25.46 31 12.92 31 0 C35.29 0 39.58 0 44 0 C44 20.13 44 40.26 44 61 C38.06 61 32.12 61 26 61 C22.55195173 52.8020088 19.87923397 44.44171369 17.3125 35.9375 C16.52065048 33.32044524 15.72433511 30.70487355 14.92578125 28.08984375 C14.40624878 26.37075806 14.40624878 26.37075806 13.8762207 24.61694336 C13.25040248 22.10173176 13.25040248 22.10173176 12 21 C12.16298584 22.15951172 12.32597168 23.31902344 12.49389648 24.51367188 C13.00518977 28.61844779 13.1143489 32.64147326 13.09765625 36.78125 C13.0962413 37.48020386 13.09482635 38.17915771 13.09336853 38.89929199 C13.0878367 41.09957429 13.07529777 43.29974923 13.0625 45.5 C13.05747616 47.00520685 13.05291482 48.51041532 13.04882812 50.015625 C13.03788977 53.67711735 13.02067359 57.33854817 13 61 C8.71 61 4.42 61 0 61 C0 40.87 0 20.74 0 0 Z " fill="#D7E2EE" transform="translate(278,169)"/>
<path d="M0 0 C0.74886475 0.00523682 1.49772949 0.01047363 2.26928711 0.01586914 C3.07817383 0.0190918 3.88706055 0.02231445 4.72045898 0.02563477 C5.5705957 0.03401367 6.42073242 0.04239258 7.29663086 0.05102539 C8.15063477 0.05553711 9.00463867 0.06004883 9.88452148 0.06469727 C12.00108749 0.07652166 14.11761771 0.0944577 16.23413086 0.11352539 C18.70791069 6.48886619 20.80116262 12.93700685 22.80834961 19.47290039 C23.13704544 20.53970032 23.46574127 21.60650024 23.80439758 22.70562744 C24.49398443 24.94746449 25.18220939 27.18972086 25.86914062 29.43237305 C26.92309247 32.86829029 27.98568303 36.30146133 29.04858398 39.73461914 C29.71903651 41.91805002 30.38897638 44.10163839 31.05834961 46.28540039 C31.37704514 47.311474 31.69574066 48.33754761 32.02409363 49.39471436 C32.31472183 50.34960754 32.60535004 51.30450073 32.90478516 52.28833008 C33.16220993 53.12579773 33.4196347 53.96326538 33.68486023 54.82611084 C34.23413086 57.11352539 34.23413086 57.11352539 34.23413086 61.11352539 C28.95413086 61.11352539 23.67413086 61.11352539 18.23413086 61.11352539 C16.95614151 56.40093967 16.23413086 53.07087491 16.23413086 48.11352539 C10.29413086 48.11352539 4.35413086 48.11352539 -1.76586914 48.11352539 C-2.07524414 49.88727539 -2.38461914 51.66102539 -2.70336914 53.48852539 C-3.64086914 58.86352539 -3.64086914 58.86352539 -4.76586914 61.11352539 C-10.04586914 61.11352539 -15.32586914 61.11352539 -20.76586914 61.11352539 C-16.54927113 46.8030042 -12.30407596 32.50099984 -7.99920654 18.21676636 C-7.55151891 16.72973548 -7.10494707 15.24236824 -6.65948486 13.75466919 C-6.03266769 11.66240616 -5.40176991 9.57141693 -4.76977539 7.48071289 C-4.40698486 6.27527832 -4.04419434 5.06984375 -3.67041016 3.82788086 C-2.44722292 0.15732872 -2.44722292 0.15732872 0 0 Z " fill="#D6E2EE" transform="translate(353.765869140625,168.886474609375)"/>
<path d="M0 0 C5.94 0 11.88 0 18 0 C21.28310978 9.62027516 24.39997753 19.18581038 27.02294922 29.00390625 C28.96360985 36.13882508 31.32277176 43.11956054 33.76538086 50.09692383 C34.05550049 50.93892334 34.34562012 51.78092285 34.64453125 52.6484375 C35.03668823 53.76484619 35.03668823 53.76484619 35.43676758 54.90380859 C36 57 36 57 36 61 C31.05 61 26.1 61 21 61 C18 52.5 18 52.5 18 48 C12.06 48 6.12 48 0 48 C-0.99 52.29 -1.98 56.58 -3 61 C-7.95 61 -12.9 61 -18 61 C-17.30330758 56.12315305 -16.59996622 52.26070016 -15.14453125 47.67578125 C-14.77207275 46.49113281 -14.39961426 45.30648437 -14.01586914 44.0859375 C-13.61875732 42.84070313 -13.22164551 41.59546875 -12.8125 40.3125 C-12.19794844 38.36578044 -11.58534325 36.41845627 -10.9730072 34.47103882 C-10.56445096 33.17172534 -10.15532355 31.87259131 -9.74562073 30.57363892 C-7.70626265 24.09770563 -5.7629458 17.59439977 -3.8527832 11.0793457 C-3.63452881 10.34159912 -3.41627441 9.60385254 -3.19140625 8.84375 C-3.00779541 8.21662109 -2.82418457 7.58949219 -2.63500977 6.94335938 C-1.8661207 4.59028096 -0.91938273 2.29845683 0 0 Z " fill="#2F4D6C" transform="translate(656,169)"/>
<path d="M0 0 C4.95 0 9.9 0 15 0 C15.01458252 1.26593994 15.02916504 2.53187988 15.04418945 3.83618164 C15.10236122 8.55342204 15.17959293 13.27019451 15.26245117 17.98706055 C15.29561184 20.02474345 15.32367112 22.06251624 15.34643555 24.1003418 C15.38014462 27.03733463 15.43246874 29.97351023 15.48828125 32.91015625 C15.49467117 33.81459976 15.5010611 34.71904327 15.50764465 35.65089417 C15.63385158 41.13654534 16.2808532 45.18445156 19 50 C22.64040554 51.21346851 24.35959446 51.21346851 28 50 C30.49585461 44.79112309 30.34393625 39.44397738 30.4140625 33.7890625 C30.43342865 32.82092621 30.4527948 31.85278992 30.4727478 30.85531616 C30.5322833 27.7786323 30.5788247 24.70191049 30.625 21.625 C30.66320373 19.53253623 30.70225685 17.44008778 30.7421875 15.34765625 C30.83796345 10.23189604 30.92209042 5.11606224 31 0 C35.95 0 40.9 0 46 0 C46.09924314 6.54699332 46.17164631 13.09354394 46.21972656 19.64111328 C46.23978046 21.86612582 46.26703065 24.09108607 46.30175781 26.31591797 C46.35054934 29.52324365 46.37303162 32.72986951 46.390625 35.9375 C46.41127014 36.92427734 46.43191528 37.91105469 46.45318604 38.92773438 C46.45570803 46.77753807 44.77452733 52.09642489 39.3125 57.8125 C32.79263674 62.11807008 25.81278568 64.16472014 18 63 C11.37039988 61.24598024 6.72417185 58.9812457 3 53 C0.13252162 46.49272996 -0.41199027 40.5371746 -0.29296875 33.49609375 C-0.28872391 32.5322023 -0.28447906 31.56831085 -0.28010559 30.57521057 C-0.26345681 27.52900985 -0.22583111 24.48349712 -0.1875 21.4375 C-0.1724353 19.35873359 -0.15875004 17.27995669 -0.14648438 15.20117188 C-0.11359864 10.13385384 -0.06191324 5.06704313 0 0 Z " fill="#D8E3EF" transform="translate(216,169)"/>
<path d="M0 0 C1.3634492 0.95853224 2.70832493 1.94674159 4 3 C2.56036361 6.35915158 0.87583411 8.71624938 -2 11 C-4.43642098 10.84281155 -6.09740731 9.95524529 -8.3125 8.9375 C-13.1271971 7.2579545 -16.64812004 7.35005771 -21.25 9.5625 C-25.01872948 12.90296476 -26.68061658 16.38997024 -27.28515625 21.33032227 C-27.40214695 23.89378021 -27.40946532 26.4342485 -27.375 29 C-27.38660156 29.86367187 -27.39820313 30.72734375 -27.41015625 31.6171875 C-27.38153725 37.89428779 -26.61427669 43.10562224 -22.25 47.9375 C-18.13830741 49.87913261 -14.21762509 49.40587503 -10 48 C-9.67 43.38 -9.34 38.76 -9 34 C-11.64 34 -14.28 34 -17 34 C-17.495 29.05 -17.495 29.05 -18 24 C-10.41 24 -2.82 24 5 24 C5 34.23 5 44.46 5 55 C-5.51895214 59.67508984 -16.25153454 62.11389413 -27.68359375 59.3515625 C-34.51099112 56.23731107 -39.2894696 49.84765575 -42 43 C-44.18896282 30.47852038 -44.67060221 17.57663541 -37.3125 6.75 C-27.54666095 -5.3847802 -13.39608032 -6.21960872 0 0 Z " fill="#2F4D6C" transform="translate(562,171)"/>
<path d="M0 0 C0.78375 0.66 1.5675 1.32 2.375 2 C2.375 6.38968456 0.24694899 7.76905739 -2.625 11 C-3.32625 10.71125 -4.0275 10.4225 -4.75 10.125 C-5.69875 9.75375 -6.6475 9.3825 -7.625 9 C-8.553125 8.62875 -9.48125 8.2575 -10.4375 7.875 C-14.47699498 6.76611903 -17.43374055 6.66199521 -21.625 7 C-24.0845774 8.33830958 -24.0845774 8.33830958 -25.625 10 C-25.51158466 12.40877257 -25.51158466 12.40877257 -24.625 15 C-21.05026916 17.52181012 -17.28634353 18.96500615 -13.1875 20.4375 C-5.49398976 23.34644574 0.51428432 26.27856864 4.375 34 C5.10101866 41.17687302 4.7793488 46.20480421 0.375 52 C-4.9620835 57.62192785 -10.76549974 59.2414451 -18.30102539 59.48120117 C-27.71795783 59.55348746 -34.81220198 58.82769507 -42.625 53 C-43.285 52.01 -43.945 51.02 -44.625 50 C-42.645 47.69 -40.665 45.38 -38.625 43 C-35.39919689 43.80645078 -32.82254201 44.73997761 -29.8125 46.0625 C-25.55351612 47.77861997 -22.26610665 48.63701464 -17.625 48 C-15.31220389 46.84360194 -13.45090172 45.82590172 -11.625 44 C-11.04057037 41.12762267 -11.04057037 41.12762267 -11.625 38 C-15.67376933 34.79751479 -19.59953859 33.18819809 -24.5 31.6875 C-31.33672226 29.34595876 -36.96865514 26.38033027 -40.8046875 20.0546875 C-42.47821494 15.86289973 -42.43444812 11.24020236 -40.90234375 7 C-37.79518757 1.16307503 -34.01247185 -1.69784223 -27.875 -3.75 C-18.17436096 -6.36171051 -8.68105997 -5.3107661 0 0 Z " fill="#2F4D6C" transform="translate(805.625,172)"/>
<path d="M0 0 C2.4375 1.9375 2.4375 1.9375 3.4375 3.9375 C1.4575 6.2475 -0.5225 8.5575 -2.5625 10.9375 C-3.26375 10.64875 -3.965 10.36 -4.6875 10.0625 C-10.58428903 7.75506082 -15.22523034 6.25850682 -21.5625 6.9375 C-22.5525 7.5975 -23.5425 8.2575 -24.5625 8.9375 C-24.8127157 12.02115871 -24.8127157 12.02115871 -24.5625 14.9375 C-18.73069 18.02492883 -12.833455 20.38875427 -6.61328125 22.59375 C-1.41775926 24.88217454 2.02683872 27.75186529 4.4375 32.9375 C5.40834226 39.27858685 5.12054639 45.63263477 1.84375 51.25 C-2.08704931 55.96695917 -7.53241577 58.51851629 -13.5703125 59.14624023 C-24.12423059 59.64399767 -33.9526699 60.07416526 -42.5625 52.9375 C-43.55078125 50.9375 -43.55078125 50.9375 -43.5625 48.9375 C-42.34765625 47.234375 -42.34765625 47.234375 -40.625 45.6875 C-39.77615234 44.90632813 -39.77615234 44.90632813 -38.91015625 44.109375 C-38.46542969 43.72265625 -38.02070312 43.3359375 -37.5625 42.9375 C-36.9025 43.205625 -36.2425 43.47375 -35.5625 43.75 C-34.5725 44.141875 -33.5825 44.53375 -32.5625 44.9375 C-31.95792969 45.20175781 -31.35335937 45.46601563 -30.73046875 45.73828125 C-25.14779243 48.06164358 -20.03039675 49.18238601 -14.125 47.0625 C-12.40356726 46.00675899 -12.40356726 46.00675899 -11.5625 43.9375 C-10.9786804 41.0225745 -10.9786804 41.0225745 -11.5625 37.9375 C-15.99151985 33.761567 -21.87629888 32.25577095 -27.49609375 30.15234375 C-33.51319232 27.7684996 -37.74496576 25.00603528 -40.5625 18.9375 C-41.33757129 12.51921299 -41.53390747 7.28117871 -37.5625 1.9375 C-26.80590173 -7.11207289 -11.72889176 -7.49189976 0 0 Z " fill="#2F4D6C" transform="translate(744.5625,172.0625)"/>
<path d="M0 0 C4.95 0 9.9 0 15 0 C15 16.17 15 32.34 15 49 C23.58 49 32.16 49 41 49 C41 57 41 57 40 61 C26.8 61 13.6 61 0 61 C0 40.87 0 20.74 0 0 Z " fill="#D7E3EF" transform="translate(160,169)"/>
<path d="M0 0 C4.62 0 9.24 0 14 0 C14 16.5 14 33 14 50 C22.58 50 31.16 50 40 50 C40 57 40 57 39 61 C26.13 61 13.26 61 0 61 C0 40.87 0 20.74 0 0 Z " fill="#2F4E6E" transform="translate(586,169)"/>
<path d="M0 0 C5.50018413 2.86009575 10.00950159 7.02850476 12 13 C13.26061757 28.18143727 13.26061757 28.18143727 8.4375 34.484375 C4.89033848 38.22431704 1.93455377 40.81398521 -3.25 41.3125 C-8.77378816 40.85218432 -11.60666805 38.54814662 -15.25 34.5 C-18.61802203 29.68853996 -19.29460215 26.60288136 -19.3125 20.625 C-19.32925781 19.33851562 -19.34601563 18.05203125 -19.36328125 16.7265625 C-18.89446387 11.91740357 -17.56700482 8.6647245 -14.24609375 5.13671875 C-13.64925781 4.65847656 -13.05242187 4.18023437 -12.4375 3.6875 C-11.83808594 3.19636719 -11.23867187 2.70523438 -10.62109375 2.19921875 C-7.07712854 -0.42246153 -4.36903861 -0.36408655 0 0 Z " fill="#D3D5D6" transform="translate(1092,79)"/>
<path d="M0 0 C15.79310345 0 15.79310345 0 20.9375 4.8125 C22.46879491 7.96516599 22.01554714 9.68254601 21 13 C18.9375 15.875 18.9375 15.875 17 18 C18.2065625 18.433125 18.2065625 18.433125 19.4375 18.875 C22 20 22 20 23 22 C23.43867925 29.89622642 23.43867925 29.89622642 21 33 C15 36 15 36 0 36 C0 24.12 0 12.24 0 0 Z " fill="#465A6C" transform="translate(745,291)"/>
<path d="M0 0 C7.31099015 2.34108629 10.83378898 6.75068347 15 13 C15.79383407 17.93012739 15.71523135 21.80794774 13.125 26.125 C8.78547553 28.72871468 4.95134962 28.76484262 0 28 C-2.30859375 26.97265625 -2.30859375 26.97265625 -4 26 C-4.66 26.66 -5.32 27.32 -6 28 C-10.38020117 24.08577768 -12.57566998 22.08206367 -13 16 C-13.33 15.67 -13.66 15.34 -14 15 C-14.64535419 10.02155339 -14.74458228 6.20093916 -12.0625 1.875 C-7.87396361 -0.68941004 -4.78780934 -0.85525142 0 0 Z " fill="#D3D5D6" transform="translate(1033,130)"/>
<path d="M0 0 C15 0 15 0 20 3 C22.45876515 6.68814773 22.6943399 9.716843 22 14 C19.93228896 17.27981751 18.22880989 18.84746007 15 21 C15.6496875 21.99902344 16.299375 22.99804688 16.96875 24.02734375 C17.81261881 25.33065225 18.65636236 26.63404185 19.5 27.9375 C19.92925781 28.59685547 20.35851562 29.25621094 20.80078125 29.93554688 C24 34.88671875 24 34.88671875 24 36 C21.28515625 36.43359375 21.28515625 36.43359375 18 36 C16.16256203 33.66171687 14.82518419 31.64464653 13.4375 29.0625 C12.066069 26.55270768 10.66913951 24.34840673 9 22 C7.35 21.67 5.7 21.34 4 21 C4 25.95 4 30.9 4 36 C2.68 36 1.36 36 0 36 C0 24.12 0 12.24 0 0 Z " fill="#475B6E" transform="translate(785,291)"/>
<path d="M0 0 C15 0 15 0 20 3 C22.36216549 6.54324823 22.58274933 8.54213044 22.53515625 12.703125 C21.57562325 16.82141263 18.4056115 18.78461497 15 21 C15.6496875 21.99902344 16.299375 22.99804688 16.96875 24.02734375 C17.81261881 25.33065225 18.65636236 26.63404185 19.5 27.9375 C19.92925781 28.59685547 20.35851562 29.25621094 20.80078125 29.93554688 C24 34.88671875 24 34.88671875 24 36 C21.765625 36.328125 21.765625 36.328125 19 36 C16.796875 33.734375 16.796875 33.734375 14.75 30.75 C14.06421875 29.77546875 13.3784375 28.8009375 12.671875 27.796875 C11.24428439 25.40866267 10.43892909 23.71103264 10 21 C8.02 21 6.04 21 4 21 C4 25.95 4 30.9 4 36 C2.68 36 1.36 36 0 36 C0 24.12 0 12.24 0 0 Z " fill="#475C6F" transform="translate(863,291)"/>
<path d="M0 0 C1.65902344 -0.03867188 1.65902344 -0.03867188 3.3515625 -0.078125 C6.65226991 0.28009131 7.97404607 1.02472563 10.375 3.25 C10.16856515 6.86260995 9.46753059 8.15272425 6.9375 10.8125 C-0.15773184 16.25847698 -8.8593079 18.38857171 -17.625 18.5 C-18.841875 18.52578125 -20.05875 18.5515625 -21.3125 18.578125 C-24.79960976 18.23270375 -26.12553871 17.62448823 -28.625 15.25 C-28.54509578 12.53325638 -28.06673356 10.76364367 -26.28125 8.6875 C-18.70173912 1.79703557 -10.05657033 0.14131012 0 0 Z " fill="#D4D6D7" transform="translate(1083.625,7.75)"/>
<path d="M0 0 C1.98 0 3.96 0 6 0 C9.28115838 7.72595771 11.83208941 15.5921637 14.25 23.625 C14.61351562 24.81996094 14.97703125 26.01492188 15.3515625 27.24609375 C16.23827319 30.16290523 17.12099502 33.08085899 18 36 C16.02 36 14.04 36 12 36 C11.34 33.36 10.68 30.72 10 28 C5.38 28 0.76 28 -4 28 C-4.99 30.64 -5.98 33.28 -7 36 C-8.32 36 -9.64 36 -11 36 C-10.4228363 31.0540661 -9.36321145 26.66737439 -7.71484375 21.97265625 C-7.49429825 21.33887558 -7.27375275 20.70509491 -7.04652405 20.05210876 C-6.3494882 18.0534228 -5.64367236 16.05797373 -4.9375 14.0625 C-4.45969934 12.69747099 -3.98248033 11.33223824 -3.50585938 9.96679688 C-2.34394817 6.64215139 -1.17414868 3.32034631 0 0 Z " fill="#45596B" transform="translate(831,291)"/>
<path d="M0 0 C2.31 0 4.62 0 7 0 C7.37511719 1.19753906 7.75023437 2.39507812 8.13671875 3.62890625 C8.65332673 5.27353777 9.17027858 6.9180613 9.6875 8.5625 C9.95643066 9.4177124 10.22536133 10.2729248 10.50244141 11.15405273 C12.62112934 17.86364686 14.83854218 24.53460906 17.1171875 31.19140625 C18 34 18 34 18 36 C16.35 36 14.7 36 13 36 C12.34 33.03 11.68 30.06 11 27 C6.05 27 1.1 27 -4 27 C-4.66 29.97 -5.32 32.94 -6 36 C-7.65 36 -9.3 36 -11 36 C-9.03227867 27.58551399 -6.60337688 19.42580569 -3.8125 11.25 C-3.44447266 10.15945313 -3.07644531 9.06890625 -2.69726562 7.9453125 C-1.80234902 5.29542958 -0.90322421 2.64706023 0 0 Z " fill="#45596C" transform="translate(321,291)"/>
<path d="M0 0 C2.31 0 4.62 0 7 0 C8.57232761 4.6428523 10.13874495 9.28764033 11.69970703 13.93432617 C12.23161236 15.5149515 12.76513164 17.09503465 13.30029297 18.67456055 C14.06902737 20.94439505 14.83194572 23.21611294 15.59375 25.48828125 C15.83436157 26.19463211 16.07497314 26.90098297 16.32287598 27.6287384 C17.29588092 30.54675212 18 32.9013002 18 36 C16.35 36 14.7 36 13 36 C12.34 33.03 11.68 30.06 11 27 C6.05 27 1.1 27 -4 27 C-4.66 29.97 -5.32 32.94 -6 36 C-7.65 36 -9.3 36 -11 36 C-8.86405563 27.84858066 -6.40917346 19.82790976 -3.8125 11.8125 C-3.44447266 10.66974609 -3.07644531 9.52699219 -2.69726562 8.34960938 C-1.80035596 5.56569497 -0.90123427 2.78251677 0 0 Z " fill="#45596C" transform="translate(164,291)"/>
<path d="M0 0 C0.7734375 -0.01675781 1.546875 -0.03351563 2.34375 -0.05078125 C5.0264022 0.40118733 5.91441418 1.1272375 7.5 3.3125 C7.5 10.12945125 4.44083062 15.33219515 -0.24609375 20.08203125 C-4.35080597 23.71006721 -7.9452115 26.60569231 -13.625 26.5625 C-17.5 26.3125 -17.5 26.3125 -19.5 24.3125 C-20.35176938 20.36487651 -20.23136759 16.72983995 -18.3671875 13.1171875 C-14.0220277 7.1340617 -7.79762839 0.03898814 0 0 Z " fill="#D3D5D6" transform="translate(1166.5,132.6875)"/>
<path d="M0 0 C3.26842233 1.49446187 5.73060986 3.19898951 8 6 C8.92441448 9.19343183 8.81152952 11.78942334 8 15 C5.94161475 18.33600367 4.2606736 19.8262176 1 22 C-3.496491 22.33307341 -7.04101477 22.24699162 -11 20 C-14.25105811 17.10040764 -15.32047942 14.75620627 -15.625 10.5 C-15.51852824 7.83820603 -15.35826353 6.46312115 -13.71875 4.34375 C-9.14051114 0.48366626 -5.94118649 -0.67077912 0 0 Z " fill="#D4D5D6" transform="translate(1118,38)"/>
<path d="M0 0 C3.125 1.5 3.125 1.5 5 3 C4.01 4.485 4.01 4.485 3 6 C2.01 5.67 1.02 5.34 0 5 C-2.37673022 4.65422319 -2.37673022 4.65422319 -4.9375 4.5625 C-5.79214844 4.50191406 -6.64679688 4.44132812 -7.52734375 4.37890625 C-10.27091977 4.82281673 -10.27091977 4.82281673 -12.2890625 7.5546875 C-14.26565723 11.5349536 -14.50444848 14.13943716 -14.4375 18.5625 C-14.43556641 20.48255859 -14.43556641 20.48255859 -14.43359375 22.44140625 C-13.98356022 26.13492468 -13.23596684 28.06426847 -11 31 C-7.53278671 32.73360665 -3.76147685 31.48361845 0 31 C0.33 27.37 0.66 23.74 1 20 C-1.64 20 -4.28 20 -7 20 C-7 18.68 -7 17.36 -7 16 C-2.71 16 1.58 16 6 16 C6 21.94 6 27.88 6 34 C-1.43284121 36.78731545 -4.70121021 37.82469745 -12 36 C-15.76932257 33.91484283 -17.96327129 31.39779128 -19.48828125 27.31640625 C-21.01798688 20.39186093 -21.49423762 12.5842297 -17.8125 6.3125 C-12.92085067 -0.03305622 -7.75746201 -0.99193777 0 0 Z " fill="#44586B" transform="translate(253,291)"/>
<path d="M0 0 C1.03769531 -0.02578125 2.07539062 -0.0515625 3.14453125 -0.078125 C6.54901636 0.28898251 8.41142285 1.3000752 11.1875 3.25 C10.8575 4.24 10.5275 5.23 10.1875 6.25 C9.56875 6.085 8.95 5.92 8.3125 5.75 C3.95453953 5.05272632 -0.40697168 4.97261488 -4.8125 5.25 C-6.10883621 6.31645115 -6.10883621 6.31645115 -5.875 8.8125 C-5.854375 9.616875 -5.83375 10.42125 -5.8125 11.25 C-4.6575 11.8275 -3.5025 12.405 -2.3125 13 C-1.58804688 13.36351562 -0.86359375 13.72703125 -0.1171875 14.1015625 C1.39428842 14.85473864 2.90982298 15.59983587 4.4296875 16.3359375 C5.13351562 16.67882812 5.83734375 17.02171875 6.5625 17.375 C7.20960938 17.68695313 7.85671875 17.99890625 8.5234375 18.3203125 C10.1875 19.25 10.1875 19.25 12.1875 21.25 C12.93921036 25.69907642 12.75542666 29.26138693 10.5 33.1875 C6.41925281 36.82708533 2.81606234 37.69054404 -2.67578125 37.5859375 C-6.4385786 36.99434596 -9.57190649 35.18056635 -12.8125 33.25 C-12.1525 31.93 -11.4925 30.61 -10.8125 29.25 C-9.78125 29.745 -8.75 30.24 -7.6875 30.75 C-4.25266228 32.21414295 -1.57891984 32.66849109 2.1875 32.25 C4.48980766 31.35168984 4.48980766 31.35168984 6.1875 30.25 C6.1875 27.94 6.1875 25.63 6.1875 23.25 C5.630625 23.01925781 5.07375 22.78851563 4.5 22.55078125 C-9.69542159 16.48415682 -9.69542159 16.48415682 -11.8125 12.25 C-12.24273798 8.37785818 -12.12919086 6.72503629 -9.9375 3.4375 C-6.64893617 0.05221371 -4.61984087 0.06835769 0 0 Z " fill="#45596B" transform="translate(598.8125,290.75)"/>
<path d="M0 0 C3.6875 1.5 3.6875 1.5 6 3 C5.67 3.99 5.34 4.98 5 6 C4.38125 5.835 3.7625 5.67 3.125 5.5 C-1.23296047 4.80272632 -5.59447168 4.72261488 -10 5 C-11.24660324 6.05054601 -11.24660324 6.05054601 -11.375 8.375 C-11.28198113 11.11977125 -11.28198113 11.11977125 -9.125 12.5625 C-5.58361254 14.19153823 -1.98204391 15.54885693 1.6953125 16.83984375 C4.39784071 18.20026897 5.4938254 19.3918638 7 22 C7.51614464 26.64530178 7.67880761 28.84351295 5.3125 32.875 C1.26439927 36.59487635 -2.34888 37.44097371 -7.86328125 37.3359375 C-11.6260786 36.74434596 -14.75940649 34.93056635 -18 33 C-17.34 31.68 -16.68 30.36 -16 29 C-14.96875 29.495 -13.9375 29.99 -12.875 30.5 C-9.44016228 31.96414295 -6.76641984 32.41849109 -3 32 C-0.69769234 31.10168984 -0.69769234 31.10168984 1 30 C1 27.69 1 25.38 1 23 C0.443125 22.76925781 -0.11375 22.53851563 -0.6875 22.30078125 C-14.88292159 16.23415682 -14.88292159 16.23415682 -17 12 C-17.43023798 8.12785818 -17.31669086 6.47503629 -15.125 3.1875 C-10.85899234 -1.20397848 -5.81486683 -0.49070606 0 0 Z " fill="#45596B" transform="translate(408,291)"/>
<path d="M0 0 C3.6875 1.5 3.6875 1.5 6 3 C5.01 4.485 5.01 4.485 4 6 C3.17242188 5.75443359 3.17242188 5.75443359 2.328125 5.50390625 C-0.26614007 4.94239586 -2.59835411 4.90260992 -5.25 4.9375 C-6.58804688 4.95103516 -6.58804688 4.95103516 -7.953125 4.96484375 C-8.62859375 4.97644531 -9.3040625 4.98804688 -10 5 C-10.66 7.31 -11.32 9.62 -12 12 C-11.443125 12.17015625 -10.88625 12.3403125 -10.3125 12.515625 C3.62857143 16.94285714 3.62857143 16.94285714 7 22 C7.34323612 25.7069501 7.29041516 28.29009627 5.875 31.75 C2.51772684 35.7787278 -0.73013662 36.85662833 -5.875 37.4375 C-10.50352071 37.28559874 -14.08583692 35.33184183 -18 33 C-17.67 31.68 -17.34 30.36 -17 29 C-12.25 30.875 -12.25 30.875 -10 32 C-7.84997611 31.97718095 -7.84997611 31.97718095 -5.5 31.6875 C-4.7059375 31.60886719 -3.911875 31.53023438 -3.09375 31.44921875 C-0.79145091 31.1534758 -0.79145091 31.1534758 1 29 C1.16681109 25.91652174 1.16681109 25.91652174 1 23 C0.14728516 22.63648438 0.14728516 22.63648438 -0.72265625 22.265625 C-13.99765074 16.50352388 -13.99765074 16.50352388 -17 12 C-17.5 8.625 -17.5 8.625 -17 5 C-12.36631696 -0.8860298 -7.15886198 -1.01814926 0 0 Z " fill="#45596C" transform="translate(565,291)"/>
<path d="M0 0 C3.6875 1.5 3.6875 1.5 6 3 C5.01 4.485 5.01 4.485 4 6 C3.17242187 5.75443359 3.17242187 5.75443359 2.328125 5.50390625 C-0.26614007 4.94239586 -2.59835411 4.90260992 -5.25 4.9375 C-6.58804687 4.95103516 -6.58804687 4.95103516 -7.953125 4.96484375 C-8.62859375 4.97644531 -9.3040625 4.98804688 -10 5 C-10.66 7.31 -11.32 9.62 -12 12 C-11.443125 12.17015625 -10.88625 12.3403125 -10.3125 12.515625 C3.62857143 16.94285714 3.62857143 16.94285714 7 22 C7.34323612 25.7069501 7.29041516 28.29009627 5.875 31.75 C2.51772684 35.7787278 -0.73013662 36.85662833 -5.875 37.4375 C-10.50352071 37.28559874 -14.08583692 35.33184183 -18 33 C-17.67 31.68 -17.34 30.36 -17 29 C-12.25 30.875 -12.25 30.875 -10 32 C-6.43293326 32.26422717 -3.83927897 32.38735953 -0.5625 30.875 C1.6260738 28.24871143 1.29461899 26.31446363 1 23 C0.14728516 22.63648438 0.14728516 22.63648438 -0.72265625 22.265625 C-13.99765074 16.50352388 -13.99765074 16.50352388 -17 12 C-17.5 8.625 -17.5 8.625 -17 5 C-12.36631696 -0.8860298 -7.15886198 -1.01814926 0 0 Z " fill="#45596C" transform="translate(369,291)"/>
<path d="M0 0 C6.93 0 13.86 0 21 0 C21 1.32 21 2.64 21 4 C18.36 4 15.72 4 13 4 C13 13.24 13 22.48 13 32 C15.64 32 18.28 32 21 32 C21 33.32 21 34.64 21 36 C14.07 36 7.14 36 0 36 C0 34.68 0 33.36 0 32 C2.64 32 5.28 32 8 32 C8 22.76 8 13.52 8 4 C5.36 4 2.72 4 0 4 C0 2.68 0 1.36 0 0 Z " fill="#45596B" transform="translate(706,291)"/>
<path d="M0 0 C3.1875 1.5 3.1875 1.5 5 3 C4.01 4.485 4.01 4.485 3 6 C2.01 5.67 1.02 5.34 0 5 C-6.67490582 4.26937838 -6.67490582 4.26937838 -12.5625 6.875 C-15.14002163 10.68524937 -15.19202759 13.19886217 -15.25 17.8125 C-15.27578125 19.03582031 -15.3015625 20.25914062 -15.328125 21.51953125 C-14.97856406 25.22737413 -14.20052148 27.04254238 -12 30 C-9.98539891 31.64152681 -8.69454447 32.02720896 -6.10546875 31.92578125 C-2.67921904 31.53802386 0.68528307 30.96679244 4 30 C4.33 30.99 4.66 31.98 5 33 C1.10037292 36.11970166 -1.68562734 37.75190719 -6.9140625 37.44140625 C-11.65542063 36.43808515 -15.32408124 34.03840681 -18.390625 30.30859375 C-21.76874003 24.61099833 -21.84823703 18.43967705 -21 12 C-19.7075798 7.52735482 -17.75696315 4.73850063 -14.4375 1.5 C-9.58475778 -0.61756024 -5.21916442 -0.69007189 0 0 Z " fill="#44596B" transform="translate(529,291)"/>
<path d="M0 0 C2.3046875 -0.2890625 2.3046875 -0.2890625 5 0 C6.6953125 1.9765625 6.6953125 1.9765625 8.125 4.625 C8.62515625 5.5325 9.1253125 6.44 9.640625 7.375 C10.08921875 8.24125 10.5378125 9.1075 11 10 C11.34546875 10.66 11.6909375 11.32 12.046875 12 C12.72059599 13.32201855 13.36480972 14.65904275 14 16 C17.33034062 11.84212019 19.62152722 7.18813527 22.0859375 2.484375 C24 0 24 0 26.7265625 -0.359375 C27.47679687 -0.24078125 28.22703125 -0.1221875 29 0 C28.23914245 1.54095026 27.47768873 3.08160876 26.71337891 4.62084961 C26.06697937 5.92364118 25.42345796 7.22786444 24.78271484 8.53344727 C23.23486517 11.65859581 21.65077314 14.6014176 19.625 17.4375 C16.96018235 23.27960023 17.16329707 29.65590898 17 36 C15.35 36 13.7 36 12 36 C12.05542969 35.14921875 12.11085938 34.2984375 12.16796875 33.421875 C12.23248068 21.29363299 7.25862528 12.87314683 0.99389648 2.71142578 C0 1 0 1 0 0 Z " fill="#45596B" transform="translate(898,291)"/>
<path d="M0 0 C1.65 0 3.3 0 5 0 C6.33838733 2.45570175 7.67086232 4.91429916 9 7.375 C9.3815625 8.07367188 9.763125 8.77234375 10.15625 9.4921875 C13 14.7734375 13 14.7734375 13 17 C13.66 17 14.32 17 15 17 C15.40798828 15.94039063 15.40798828 15.94039063 15.82421875 14.859375 C17.03581127 11.91291081 18.36020308 9.08561931 19.8125 6.25 C20.53373047 4.80367188 20.53373047 4.80367188 21.26953125 3.328125 C23 1 23 1 25.69921875 0.171875 C26.45847656 0.11515625 27.21773438 0.0584375 28 0 C26.77843418 4.32554456 25.02997039 7.74143749 22.67358398 11.5078125 C17.52979964 19.79801203 15.61296112 26.0918046 16 36 C14.68 36 13.36 36 12 36 C12.05542969 35.22140625 12.11085938 34.4428125 12.16796875 33.640625 C12.23586419 21.85397688 7.03248964 13.65072418 0.99389648 3.84082031 C0 2 0 2 0 0 Z " fill="#465A6D" transform="translate(428,291)"/>
<path d="M0 0 C1.65 0 3.3 0 5 0 C5 10.56 5 21.12 5 32 C10.28 32 15.56 32 21 32 C21 33.32 21 34.64 21 36 C14.07 36 7.14 36 0 36 C0 24.12 0 12.24 0 0 Z " fill="#45596B" transform="translate(668,291)"/>
<path d="M0 0 C1.65 0 3.3 0 5 0 C5 10.56 5 21.12 5 32 C10.28 32 15.56 32 21 32 C21 33.32 21 34.64 21 36 C14.07 36 7.14 36 0 36 C0 24.12 0 12.24 0 0 Z " fill="#45596B" transform="translate(276,291)"/>
<path d="M0 0 C9 0 9 0 12.5625 2.0625 C15 5 15 5 15.625 8.5 C14.90840833 12.51291334 13.94742682 14.21631912 11 17 C7.40496431 18.61156772 4.07471774 18 0 18 C0 12.06 0 6.12 0 0 Z " fill="#14181E" transform="translate(415,179)"/>
<path d="M0 0 C2.37464772 2.37464772 2.57096142 3.69528818 3.2890625 6.9375 C3.61777344 8.40316406 3.61777344 8.40316406 3.953125 9.8984375 C4.17484375 10.92195312 4.3965625 11.94546875 4.625 13 C4.85445312 14.02351562 5.08390625 15.04703125 5.3203125 16.1015625 C7 23.68015253 7 23.68015253 7 26 C3.04 26 -0.92 26 -5 26 C-4.43819394 17.01110303 -2.31161634 8.66587335 0 0 Z " fill="#11171D" transform="translate(664,180)"/>
<path d="M0 0 C9.19925512 -0.48417132 9.19925512 -0.48417132 12.6875 1.625 C14 4 14 4 14 7.0625 C13 10 13 10 11.5 11.875 C7.63899979 13.6124501 4.20843596 13.18566629 0 13 C0 8.71 0 4.42 0 0 Z " fill="#171B20" transform="translate(867,295)"/>
<path d="M0 0 C3.375 0.9375 3.375 0.9375 5.375 3.9375 C5.8266129 10.26008065 5.8266129 10.26008065 3.375 13.9375 C0 14.875 0 14.875 -3.625 14.9375 C-6.0625 13.4375 -6.0625 13.4375 -7.625 10.9375 C-8.19145882 6.97228823 -8.20090314 4.85894502 -6.0625 1.4375 C-3.625 -0.0625 -3.625 -0.0625 0 0 Z " fill="#D3D5D6" transform="translate(1032.625,85.0625)"/>
<path d="M0 0 C9.625 -0.25 9.625 -0.25 13 2 C13.76987448 8.92887029 13.76987448 8.92887029 11.5625 12 C7.65036006 13.52668876 4.18295601 13.18454218 0 13 C0 8.71 0 4.42 0 0 Z " fill="#16191E" transform="translate(789,295)"/>
<path d="M0 0 C8.13448006 -0.35887412 8.13448006 -0.35887412 11.5625 1.0625 C13.79083695 4.06591067 13.45264211 6.37886313 13 10 C11.796875 11.70703125 11.796875 11.70703125 10 13 C7.51953125 13.29296875 7.51953125 13.29296875 4.8125 13.1875 C3.224375 13.125625 1.63625 13.06375 0 13 C0 8.71 0 4.42 0 0 Z " fill="#15191D" transform="translate(750,310)"/>
<path d="M0 0 C2.27475041 2.27475041 2.53850483 3.42727159 3.2890625 6.5 C3.61777344 7.8303125 3.61777344 7.8303125 3.953125 9.1875 C4.17484375 10.115625 4.3965625 11.04375 4.625 12 C4.85445313 12.928125 5.08390625 13.85625 5.3203125 14.8125 C7 21.69122024 7 21.69122024 7 24 C3.04 24 -0.92 24 -5 24 C-4.39496146 18.3444819 -3.37814297 12.99786009 -1.9375 7.5 C-1.75123047 6.77296875 -1.56496094 6.0459375 -1.37304688 5.296875 C-0.91973545 3.53012276 -0.4604998 1.76489225 0 0 Z " fill="#0E1218" transform="translate(360,182)"/>
<path d="M0 0 C1.423125 -0.061875 2.84625 -0.12375 4.3125 -0.1875 C5.51326172 -0.23970703 5.51326172 -0.23970703 6.73828125 -0.29296875 C9 0 9 0 10.8046875 1.28515625 C12 3 12 3 11.8125 6.625 C11.544375 7.73875 11.27625 8.8525 11 10 C7.57067929 11.71466036 3.78283935 11.05404056 0 11 C0 7.37 0 3.74 0 0 Z " fill="#16191E" transform="translate(750,295)"/>
<path d="M0 0 C2.86632944 2.86632944 3.2315668 6.29316426 4.125 10.125 C4.30675781 10.87910156 4.48851562 11.63320313 4.67578125 12.41015625 C5.12354709 14.27191946 5.56260722 16.13577253 6 18 C2.37 18 -1.26 18 -5 18 C-3.41463415 3.41463415 -3.41463415 3.41463415 0 0 Z " fill="#161A1F" transform="translate(324,296)"/>
<path d="M0 0 C0.66 0 1.32 0 2 0 C2.67548578 2.05962852 3.34004312 4.12284322 4 6.1875 C4.37125 7.33605469 4.7425 8.48460937 5.125 9.66796875 C6 13 6 13 6 18 C2.37 18 -1.26 18 -5 18 C-3.3675258 11.98952682 -1.72857669 5.98353471 0 0 Z " fill="#181C22" transform="translate(833,296)"/>
<path d="M0 0 C2.59947787 2.59947787 3.0684435 4.92738453 4.125 8.4375 C4.47820312 9.59121094 4.83140625 10.74492187 5.1953125 11.93359375 C6 15 6 15 6 18 C2.37 18 -1.26 18 -5 18 C-3.72520789 11.8221613 -2.1079151 5.94432058 0 0 Z " fill="#16191E" transform="translate(167,296)"/>
</svg>
